<?xml version="1.0" standalone="no"?>
<!DOCTYPE svg PUBLIC "-//W3C//DTD SVG 20010904//EN"
 "http://www.w3.org/TR/2001/REC-SVG-20010904/DTD/svg10.dtd">
<svg version="1.0" xmlns="http://www.w3.org/2000/svg"
 width="512.000000pt" height="512.000000pt" viewBox="0 0 512.000000 512.000000"
 preserveAspectRatio="xMidYMid meet">

<g transform="translate(0.000000,512.000000) scale(0.100000,-0.100000)"
fill="#000000" stroke="none">
<path d="M2340 5106 c-612 -89 -1094 -495 -1289 -1087 -164 -499 -72 -1028
254 -1454 29 -38 164 -185 299 -325 l245 -255 1 -97 0 -97 -46 -7 c-53 -8
-101 -44 -120 -91 -11 -25 -14 -100 -14 -321 0 -324 10 -391 72 -501 64 -112
210 -228 321 -255 l27 -6 0 -109 c0 -79 5 -126 19 -170 78 -252 355 -390 605
-302 105 37 135 93 80 148 -29 28 -42 28 -139 -7 -147 -54 -309 14 -387 162
-18 35 -23 64 -26 150 l-4 108 316 0 317 0 -2 -120 c-2 -104 0 -123 16 -140
30 -33 102 -23 121 17 4 10 10 72 13 138 l6 119 62 22 c154 55 275 177 335
340 20 55 22 79 26 378 2 232 0 326 -8 347 -19 46 -72 85 -124 93 l-46 7 0 97
1 97 245 255 c136 140 281 302 324 358 138 184 236 403 282 635 18 91 22 146
22 292 0 201 -19 327 -75 498 -40 124 -146 334 -217 432 -54 75 -60 80 -98 83
-30 2 -45 -2 -59 -18 -32 -35 -22 -69 48 -172 109 -160 186 -342 229 -541 31
-147 31 -418 0 -564 -39 -182 -107 -343 -210 -498 -61 -92 -164 -206 -467
-521 l-170 -177 -3 -128 -4 -129 -79 0 c-43 0 -79 3 -79 8 0 4 72 399 161 879
178 958 173 915 108 948 -41 22 -73 18 -139 -15 -33 -16 -66 -30 -75 -30 -9 0
-39 16 -68 35 -72 48 -110 47 -176 -5 l-51 -41 -58 39 c-31 21 -68 42 -81 45
-29 7 -74 -11 -136 -53 l-45 -31 -51 41 c-68 54 -105 54 -182 1 l-56 -39 -71
34 c-102 48 -151 43 -186 -21 -17 -31 -16 -38 46 -371 34 -186 68 -347 74
-357 23 -38 89 -36 119 5 l20 26 -52 277 c-28 153 -50 280 -47 282 2 2 18 -3
35 -11 51 -27 99 -20 158 20 l52 36 51 -41 c68 -53 97 -54 179 -1 34 22 66 40
71 40 5 0 37 -18 71 -40 82 -53 111 -53 179 1 l52 41 52 -36 c59 -40 107 -47
157 -20 17 8 33 13 35 11 3 -3 -64 -375 -148 -828 l-153 -824 -245 0 -244 0
-23 120 c-134 721 -131 709 -154 727 -45 37 -119 5 -119 -51 0 -13 32 -193 70
-400 39 -208 70 -383 70 -389 0 -8 -26 -12 -79 -12 l-79 0 -4 129 -3 128 -150
157 c-317 330 -414 438 -472 523 -110 160 -180 324 -225 524 -32 145 -32 405
0 556 42 192 128 395 234 551 29 42 105 129 168 193 211 214 440 336 745 396
125 24 415 24 538 0 206 -42 427 -137 579 -252 94 -71 132 -81 168 -45 33 33
26 77 -17 117 -156 142 -465 284 -718 329 -124 22 -385 27 -505 10z m960
-3556 l0 -90 -740 0 -740 0 0 90 0 90 740 0 740 0 0 -90z m0 -340 l0 -100
-740 0 -740 0 0 100 0 100 740 0 740 0 0 -100z m-50 -258 c0 -19 -61 -92 -105
-126 -26 -19 -72 -46 -103 -58 -56 -23 -63 -23 -477 -23 -465 0 -470 1 -570
67 -44 30 -125 119 -125 139 0 5 282 9 690 9 380 0 690 -4 690 -8z"/>
</g>
</svg>
